<svg id="svg" version="1.1" xmlns="http://www.w3.org/2000/svg" xmlns:xlink="http://www.w3.org/1999/xlink" width="400" height="400" viewBox="0, 0, 400,400"><g id="svgg"><path id="path0" d="M76.923 64.089 C 76.923 65.913,59.615 123.612,38.462 192.308 C -8.635 345.250,-8.400 338.462,33.398 338.462 C 65.697 338.462,67.099 337.450,76.014 307.692 C 89.932 261.240,154.609 259.857,165.951 305.769 C 172.815 333.556,174.419 334.702,209.615 336.960 C 255.757 339.921,255.903 344.665,205.042 188.462 L 164.967 65.385 120.945 63.078 C 96.733 61.809,76.923 62.264,76.923 64.089 M133.083 182.532 C 135.449 194.255,139.728 209.904,142.592 217.308 C 146.891 228.421,143.475 230.769,123.003 230.769 C 100.955 230.769,98.752 228.850,103.134 213.462 C 105.845 203.942,110.132 186.691,112.660 175.125 C 118.166 149.941,127.165 153.205,133.083 182.532 M261.538 207.692 L 261.538 230.769 330.769 230.769 L 400.000 230.769 400.000 207.692 L 400.000 184.615 330.769 184.615 L 261.538 184.615 261.538 207.692 " stroke="none" fill="#000000" fill-rule="evenodd"></path></g></svg>