<svg xmlns="http://www.w3.org/2000/svg" viewBox="0 0 480 480" width="512" height="512" fill="#757575"><path d="M440 80H257.12c-8.035.024-15.546-3.984-20-10.672l-12.968-19.52A39.9 39.9 0 0 0 190.88 32H40C17.92 32.026.026 49.92 0 72v336c.026 22.08 17.92 39.974 40 40h400c22.08-.026 39.974-17.92 40-40V120c-.026-22.08-17.92-39.974-40-40zm24 328c0 13.255-10.745 24-24 24H40c-13.255 0-24-10.745-24-24V168c0-13.255 10.745-24 24-24h400c13.255 0 24 10.745 24 24v240zm0-272c-.312-.24-.672-.408-.992-.632-.648-.456-1.328-.856-2.008-1.272a40.61 40.61 0 0 0-4.224-2.304c-.8-.36-1.544-.696-2.336-1.008-1.568-.595-3.17-1.092-4.8-1.488-.752-.184-1.472-.416-2.24-.56-2.438-.476-4.916-.723-7.4-.736H40c-2.5.018-4.973.27-7.416.752-.8.144-1.488.376-2.24.56-1.63.395-3.233.9-4.8 1.488a36.87 36.87 0 0 0-2.344 1.008c-1.45.684-2.86 1.45-4.224 2.296-.672.424-1.36.8-2.008 1.28-.32.224-.68.392-.992.632L16 72c0-13.255 10.745-24 24-24h150.88c8.035-.024 15.546 3.984 20 10.672l12.968 19.52A39.9 39.9 0 0 0 257.12 96H440c13.255 0 24 10.745 24 24v16zM344 336H155.312l31.6-31.6a8 8 0 0 0-.196-11.312c-3.1-2.994-8.015-2.994-11.116 0l-45.248 45.248a7.91 7.91 0 0 0-1.736 2.608 8 8 0 0 0 0 6.112 7.91 7.91 0 0 0 1.736 2.608l45.248 45.248a8 8 0 0 0 11.312-.196c2.994-3.1 2.994-8.015 0-11.116l-31.6-31.6H344a8 8 0 1 0 0-16zm-208-96h188.688l-31.6 31.6a8 8 0 0 0 11.116 11.508l45.444-45.444a7.91 7.91 0 0 0 1.736-2.608 8 8 0 0 0 0-6.112 7.91 7.91 0 0 0-1.736-2.608L304.4 181.088a8 8 0 0 0-11.312.196c-2.994 3.1-2.994 8.015 0 11.116l31.6 31.6H136a8 8 0 1 0 0 16z"/></svg>