<svg xmlns="http://www.w3.org/2000/svg" viewBox="0 0 487.209 487.209" width="512" height="512" fill="#2d2d2d"><path d="M482.75 327.984a14.83 14.83 0 0 0-17.254-2.511c-84.865 44.542-192.218 31.155-263.564-40.2s-84.73-178.707-40.2-263.57c2.992-5.686 1.965-12.65-2.53-17.242a14.79 14.79 0 0 0-17.175-2.927C117.87 13.53 95.193 29.564 75.057 49.7c-100.07 100.08-100.07 262.352 0 362.433 100.104 100.088 262.36 100.088 362.446 0 20.135-20.136 36.162-42.798 48.16-66.966a14.83 14.83 0 0 0-2.913-17.194zm-177.197-55.736a2.12 2.12 0 0 0 .658 2.463c.737.583 1.778.614 2.542.072l33.027-23.458 37.503 15.365a2.14 2.14 0 0 0 2.468-.647 2.12 2.12 0 0 0 .064-2.545l-23.46-33.042 15.363-37.5a2.11 2.11 0 0 0-.65-2.464 2.14 2.14 0 0 0-2.55-.072l-33.02 23.457-37.5-15.36c-.878-.354-1.865-.092-2.46.645a2.11 2.11 0 0 0-.063 2.545l23.46 33.042-15.37 37.488zM218.773 94.54l27.255 2.017L258.9 120.65c.43.832 1.377 1.274 2.306 1.074.925-.194 1.594-.978 1.677-1.92l2.017-27.237L289 79.683a2.13 2.13 0 0 0 1.076-2.311 2.11 2.11 0 0 0-1.921-1.671L260.9 73.685 248.026 49.6c-.434-.833-1.378-1.273-2.304-1.072-.928.192-1.596.975-1.678 1.92l-2.02 27.238-24.098 12.882c-.833.448-1.264 1.384-1.077 2.312.195.92.98 1.607 1.923 1.67zM391.3 67.296l-.83 15.14a2.13 2.13 0 0 0 1.426 2.11c.878.313 1.873 0 2.4-.768l8.797-12.338 15.164.823a2.09 2.09 0 0 0 2.11-1.415c.32-.888 0-1.88-.765-2.423l-12.347-8.806.815-15.153a2.14 2.14 0 0 0-1.4-2.11 2.12 2.12 0 0 0-2.43.768l-8.813 12.355-15.13-.824c-.944-.055-1.808.53-2.107 1.416a2.1 2.1 0 0 0 .762 2.424l12.348 8.803z"/></svg>