<svg xmlns="http://www.w3.org/2000/svg" viewBox="0 0 511.999 511.999" width="512" height="512"><path d="M508.874 478.708L360.142 329.976c28.2-34.827 45.19-79.103 45.19-127.31C405.333 90.917 314.416 0 202.666 0S0 90.917 0 202.667s90.917 202.667 202.667 202.667c48.206 0 92.482-16.982 127.31-45.19l148.732 148.732a10.67 10.67 0 0 0 15.086 0l15.08-15.082a10.67 10.67 0 0 0-.001-15.085zm-306.207-116.04c-88.23 0-160-71.77-160-160s71.77-160 160-160 160 71.77 160 160-71.77 160-160 160z" fill="#2d2d2d"/></svg>