<svg xmlns="http://www.w3.org/2000/svg" viewBox="0 0 207.628 207.628" width="512" height="512" fill="#2d2d2d"><circle cx="103.814" cy="103.814" r="45.868"/><path d="M103.814 157.183c-29.427 0-53.368-23.94-53.368-53.368s23.94-53.368 53.368-53.368 53.368 23.94 53.368 53.368-23.94 53.368-53.368 53.368zm0-91.737c-21.156 0-38.368 17.212-38.368 38.368s17.212 38.368 38.368 38.368 38.368-17.212 38.368-38.368-17.212-38.368-38.368-38.368zm0-26.06a7.5 7.5 0 0 1-7.5-7.5V7.5a7.5 7.5 0 1 1 15 0v24.385a7.5 7.5 0 0 1-7.5 7.5zm0 168.243a7.5 7.5 0 0 1-7.5-7.5v-24.385a7.5 7.5 0 1 1 15 0v24.385a7.5 7.5 0 0 1-7.5 7.5zm96.314-96.314h-24.385a7.5 7.5 0 1 1 0-15h24.385a7.5 7.5 0 1 1 0 15zm-168.243 0H7.5a7.5 7.5 0 1 1 0-15h24.385a7.5 7.5 0 1 1 0 15zm122.79-50.862a7.47 7.47 0 0 1-5.303-2.197 7.5 7.5 0 0 1 0-10.606l17.243-17.242a7.5 7.5 0 0 1 10.606 10.606L159.98 58.255c-1.464 1.465-3.384 2.197-5.303 2.197zM35.7 179.42a7.47 7.47 0 0 1-5.303-2.197 7.5 7.5 0 0 1 0-10.606l17.243-17.243a7.5 7.5 0 0 1 10.606 10.606l-17.243 17.243a7.47 7.47 0 0 1-5.303 2.197zm136.208 0a7.47 7.47 0 0 1-5.303-2.197l-17.243-17.243a7.5 7.5 0 0 1 10.606-10.606l17.243 17.243a7.5 7.5 0 0 1 0 10.606 7.47 7.47 0 0 1-5.303 2.197zM52.952 60.452a7.47 7.47 0 0 1-5.303-2.197L30.406 41.013a7.5 7.5 0 0 1 10.606-10.606L58.255 47.65a7.5 7.5 0 0 1 0 10.606 7.47 7.47 0 0 1-5.303 2.197z"/></svg>