<svg xmlns="http://www.w3.org/2000/svg" viewBox="0 0 512 512" fill="#2d2d2d"><path d="M504.97 239.03L448 182.06V84c0-46.317-37.682-84-84-84h-44c-13.255 0-24 10.745-24 24s10.745 24 24 24h44c19.85 0 36 16.15 36 36v108a24 24 0 0 0 7.03 16.97L454.06 256l-47.03 47.03a24 24 0 0 0-7.03 16.971v108c0 19.85-16.15 36-36 36h-44c-13.255 0-24 10.745-24 24s10.745 24 24 24h44c46.318 0 84-37.683 84-84v-98.06l56.97-56.97c9.372-9.372 9.372-24.568 0-33.94zM112 192V84c0-19.85 16.15-36 36-36h44c13.255 0 24-10.745 24-24S205.255 0 192 0h-44c-46.318 0-84 37.683-84 84v98.06L7.03 239.03c-9.373 9.373-9.373 24.568 0 33.94L64 329.94V428c0 46.317 37.682 84 84 84h44c13.255 0 24-10.745 24-24s-10.745-24-24-24h-44c-19.85 0-36-16.15-36-36V320a24 24 0 0 0-7.03-16.97L57.94 256l47.03-47.03A24 24 0 0 0 112 192z"/></svg>