<svg xmlns="http://www.w3.org/2000/svg" viewBox="0 0 384 384" width="512" height="512" fill="#2d2d2d"><path d="M379.312 84.688l-79.992-80A16.01 16.01 0 0 0 288 0H168a16.01 16.01 0 0 0-16 16 16.01 16.01 0 0 0 16 16h56v96H104V16A16.01 16.01 0 0 0 88 0H48C21.528 0 0 21.528 0 48v288c0 26.472 21.528 48 48 48h288c26.472 0 48-21.528 48-48V96c0-4.24-1.688-8.312-4.688-11.312zM280 352H104v-88h176v88zm72-16a16.02 16.02 0 0 1-16 16h-24V248a16.01 16.01 0 0 0-16-16H88a16.01 16.01 0 0 0-16 16v104H48a16.02 16.02 0 0 1-16-16V48a16.02 16.02 0 0 1 16-16h24v112a16.01 16.01 0 0 0 16 16h152a16.01 16.01 0 0 0 16-16V32h25.376L352 102.624V336zM136 56a16.01 16.01 0 0 0-16 16v16a16.01 16.01 0 0 0 16 16 16.01 16.01 0 0 0 16-16V72a16.01 16.01 0 0 0-16-16z"/></svg>