<svg xmlns="http://www.w3.org/2000/svg" height="512" viewBox="0 0 512 512.002" width="512"><path d="M256 .004c-62.676 0-123.605 23.082-171.094 62.27L27.31 4.676C22.723.11 15.852-1.258 9.88 1.22S0 9.516 0 16.004v138.664a16.01 16.01 0 0 0 16 16h138.668a16 16 0 0 0 14.785-9.875 15.98 15.98 0 0 0-3.48-17.43L115.223 92.6C154.668 61.164 204.586 42.668 256 42.668c117.633 0 213.336 95.703 213.336 213.336S373.633 469.336 256 469.336c-56.937 0-110.504-22.207-150.805-62.527-8.34-8.344-21.824-8.344-30.164 0s-8.344 21.824 0 30.164c48.363 48.383 112.64 75.03 180.97 75.03 141.164 0 256-114.84 256-256s-114.836-256-256-256zm0 0" fill="#2d2d2d"/></svg>