<svg width="4" height="16" viewBox="0 0 4 16" fill="none" xmlns="http://www.w3.org/2000/svg">
<path d="M2 12.0001C0.9 12.0001 1.19417e-07 12.9001 7.70431e-08 14.0001C3.46694e-08 15.1001 0.9 16.0001 2 16.0001C3.1 16.0001 4 15.1001 4 14.0001C4 12.9001 3.1 12.0001 2 12.0001ZM2 10.0001C3.1 10.0001 4 9.10006 4 8.00006C4 6.90006 3.1 6.00006 2 6.00006C0.9 6.00006 3.50546e-07 6.90006 3.08172e-07 8.00006C2.65799e-07 9.10006 0.9 10.0001 2 10.0001ZM2 4.00006C3.1 4.00006 4 3.10006 4 2.00006C4 0.900061 3.1 6.10005e-05 2 6.09581e-05C0.900001 6.09157e-05 5.81675e-07 0.90006 5.39301e-07 2.00006C4.96928e-07 3.10006 0.900001 4.00006 2 4.00006Z" fill="#747474"/>
</svg>
